<?xml version="1.0" encoding="UTF-8"?><svg id="Layer_2" xmlns="http://www.w3.org/2000/svg" xmlns:xlink="http://www.w3.org/1999/xlink" viewBox="0 0 353.43 67.53"><defs><style>.cls-1{fill:none;}.cls-2{clip-path:url(#clippath);}.cls-3{fill:#180c29;}.cls-4{clip-path:url(#clippath-1);}.cls-5{clip-path:url(#clippath-3);}.cls-6{clip-path:url(#clippath-2);}</style><clipPath id="clippath"><rect class="cls-1" width="353.43" height="67.53"/></clipPath><clipPath id="clippath-1"><rect class="cls-1" width="353.43" height="67.53"/></clipPath><clipPath id="clippath-2"><rect class="cls-1" width="353.43" height="67.53"/></clipPath><clipPath id="clippath-3"><rect class="cls-1" width="353.43" height="67.53"/></clipPath></defs><g id="Layer_1-2"><g class="cls-2"><path class="cls-3" d="M23.36,48.91c-.36-.83-.3-1.13,.42-2.38,13.39-23.44,16.66-31.06,16.66-34.39,0-1.25-.06-1.31-1.13-1.07-3.87,.83-13.33,9.28-18.21,16.3-3.39,4.88-3.63,5.12-4.7,5.12-1.13,0-1.78-.59-1.78-1.61,0-.42,.65-3.63,1.43-7.2,.77-3.57,1.37-6.54,1.31-6.6-.24-.24-5.65,10.59-7.79,15.41-1.07,2.44-2.86,6.9-4.11,9.88-1.25,3.03-2.5,5.77-2.8,6.13-.71,.89-1.73,.78-2.38-.3-.53-.83-.48-1.07,1.73-6.6C6.83,29.52,10.75,21.25,15.45,13.4c3.33-5.53,3.81-6.01,5.41-5.89,2.14,.18,2.2,.53,.54,7.91-.83,3.63-1.49,6.9-1.49,7.2s.42,0,.95-.71c3.33-4.46,10.83-10.95,14.75-13.03,3.81-2.02,6.72-1.72,7.79,.83,1.25,2.97,.3,6.49-4.58,16.06-3.39,6.66-12.02,22.67-12.79,23.44-.89,.89-2.2,.77-2.68-.3"/><path class="cls-3" d="M42.07,59.67c1.79-1.78,4.34-4.7,5.65-6.43,2.5-3.27,5.71-8.39,5.47-8.63-.48-.48-10.23,9.7-13.15,13.62-1.01,1.37-2.92,4.82-2.92,5.23,0,.59,2.02-.89,4.94-3.81m-6.9,7.55c-2.8-1.19-1.67-5.89,2.62-11.66,2.74-3.69,10.06-11.01,15.11-15.29,2.32-1.97,4.22-3.63,4.28-3.63s.3-.65,.65-1.43c.59-1.31,.59-1.37-.12-.83-8.51,6.37-13.74,8.63-16.42,7.73-3.51-1.19-2.97-6.01,.95-11.78,.89-1.31,1.96-2.5,2.44-2.86,.89-.65,2.38-.71,2.97-.12,.83,.83,.48,1.72-1.25,3.39-1.55,1.49-3.63,4.88-4.17,7.02-.36,1.37,.71,1.37,3.57,0,3.39-1.61,6.49-3.63,11.13-7.26,4.1-3.21,5.29-3.63,6.07-1.96,.3,.65,.24,1.25,0,2.38-.18,.77-.36,1.55-.3,1.55s1.61-1.01,3.39-2.38c1.78-1.37,3.51-2.5,3.75-2.5,.54,0,1.55,1.19,1.55,1.85,0,.77-1.79,2.32-6.66,5.89l-4.4,3.21-2.5,4.88c-4.22,8.21-8.57,14.1-14.1,19.39-2.8,2.68-6.01,4.7-7.26,4.7-.3,0-.89-.12-1.31-.3"/><path class="cls-3" d="M75.76,42.85V15.81c0-.5-.11-4.09-2.18-6.48h11.34c-2.12,3.3-2.12,6.54-2.12,6.54v29.61h8.6c.87-.06,1.65-.34,2.35-.84l3.52-2.74,2.9,7.43h-26.59c2.07-2.39,2.17-5.97,2.18-6.48"/><path class="cls-3" d="M100.44,49.6c1.88-2.28,1.99-5.34,1.99-6.07v-12.47s0-3.06-2-4.7l8.07-3.68,.05,20.7c0,.26,.05,3.09,1.99,6.21h-10.11Zm-.15-34.47l4.95-4.75c1.79,3.37,4.7,4.85,4.7,4.85l-4.8,5.16c-3.27-1.84-4.85-5.26-4.85-5.26"/><path class="cls-3" d="M120.45,23.45h7.35l-.92,2.6h-6.43c0,7.97-.05,17.31-.05,17.31,0,0,.31,3.27,2.35,6.23h-10.16c1.99-2.81,1.99-6.23,1.99-6.23l-.2-17.31h-2.76l.97-2.6h1.79c0-.47-.01-.93,0-1.4,0-1.93,.94-3.87,4.81-7.74,4.49-4.49,6.63-5.06,8.67-5.06s4.26,.88,4.8,1.84l-5.26,6.59s-.87-2.76-3.88-2.76c-1.33,0-3.12,.2-3.12,2.14,0,2.13,.02,4.26,.05,6.38"/><path class="cls-3" d="M131.56,29.42c0,3.72,2.23,9.6,2.23,9.67,0,0,3.8-5.69,4.68-7.04,2.66-4.07-.1-5.36-4.52-5.62-1.82-.11-2.29,.94-2.39,3Zm15.1,16.46c-.46,.56-2.91,4.39-8.78,4.39-6.64,0-11.03-4.44-11.03-14.19,0-7.75,3.4-13.38,11.08-13.38,5.97,0,8.27,3.83,8.27,3.83l-11.8,14.55s0,.3,.25,.86c1.97,4.23,4.25,4.51,7.11,4.51,1.62,0,3.31-.27,4.89-.57"/><path class="cls-3" d="M150.76,15.09c0,.49-.06,1-.2,1.55-.71,2.74-3.29,6.07-3.29,6.07,0,0,.31-.83,.31-2.09,0-1.95-.73-4.93-4.46-7.54,0,0,2.31-2.23,3.76-3.68,0,0,3.89,1.88,3.89,5.7"/><path class="cls-3" d="M170.13,43.67c0,1.33-.87,6.64-11.18,6.64-7.25,0-10.01-4.29-10.01-4.29l4.95-5.06s3.27,5.93,10.06,5.98c.78,.01,1.49-.3,2.13-.95,0-1.25-3.17-3.05-7.95-6.25-7.1-5.14-7.81-7.95-7.81-10.52s3.17-6.49,9.09-6.49c6.94,0,8.78,2.76,8.78,2.76l-2.4,6.39s-4.9-5.46-9.75-5.46c-1.49,0-2.17,.3-2.17,.85,0,1.23,3.38,3.43,8.14,6.96,5.93,4.39,8.12,5.85,8.11,9.45"/><path class="cls-3" d="M200.69,9.33c-2.12,3.3-2.12,6.54-2.12,6.54v20.89c0,1.92-.67,6.7-6.93,10.28-3.93,2.28-7.71,3.1-10.83,3.1-3.3,0-5.87-.92-7.1-1.98l6.43-6.2c1.68,1.77,5.07,3.88,7.44,3.88,.54,0,1.03-.11,1.44-.36,2.46-1.56,2.52-12.01,2.52-12.01V15.81c0-.5-.11-4.08-2.18-6.48h11.34Z"/><path class="cls-3" d="M219.67,31.69c-1.87-3.67-5.47-4.7-9.45-4.73-1.62,0-2.23,.95-2.23,2.64,0,4.46,.59,8.72,2.45,12.82,1.73,3.82,5.01,5.35,9.03,5.35,1.31,.03,2.18-1.01,2.18-3.14,0-4.49,.1-8.84-1.99-12.95m8.05,5.69c0,10.09-5.76,13.76-12.68,13.76s-12.68-3.73-12.68-14.03,5.7-14.03,12.68-14.03c8.43,0,12.68,6.33,12.68,14.3"/><path class="cls-3" d="M246.51,50.77v-4.66c-1.09,1.03-5.43,4.97-9.26,5.02h-.1c-5.95,0-6.11-4.35-6.11-6.93v-12.78s0-3.06-2.02-4.81l7.66-3.52v17.8s0,4.8,5.23,4.8c1.22,0,2.64-.3,4.5-1.02v-13.04s0-3-2.02-4.81l8.18-3.73v19.56s0,2.95,2.02,4.76c0,.05-8.07,3.36-8.07,3.37"/><path class="cls-3" d="M277.21,24.73l-5.23,6.52s-1.26-2.81-4.57-2.81c-.93,0-2.02,.22-3.29,.79l.05,14.77c0,.27,.05,3.14,2.02,6.29h-10.25c1.9-2.31,2.02-5.41,2.02-6.15v-13s-.12-3.18-2.02-4.76l8.18-3.72v4.81c1.09-1.29,4.35-4.71,8.49-4.71,3.47,0,4.61,1.97,4.61,1.96"/><path class="cls-3" d="M303.72,50.3h-9.63c1.88-4.71,1.97-6.12,1.97-6.33v-11.62s0-4.16-5.83-4.16c-1.22,0-2.66,.28-4.42,1.05l.1,14.75c0,.31,.05,3.16,2.02,6.31h-10.25c1.9-2.31,2.02-5.41,2.02-6.15,0-4.3,0-8.6,0-12.89,0,0,0-2.95-2.02-4.76,0-.08,8.08-3.73,8.08-3.73v5.02c1.09-.98,6.1-5.02,9.73-5.02s6.21,2.1,6.21,6.92,.04,9.64,.04,14.46c0,.63,.17,2.62,1.98,6.15h0Z"/><path class="cls-3" d="M309.92,29.91c0,3.77,2.26,9.73,2.26,9.8,0,0,3.85-5.77,4.74-7.14,2.7-4.12-.1-5.43-4.58-5.7-1.85-.11-2.33,.96-2.42,3.03Zm15.3,16.68c-.47,.57-2.95,4.45-8.9,4.45-6.73,0-11.18-4.5-11.18-14.39,0-7.86,3.44-13.56,11.23-13.56,6.05,0,8.38,3.88,8.38,3.88l-11.95,14.75s-.01,.3,.25,.87c2,4.28,4.31,4.57,7.21,4.57,1.64,0,3.36-.28,4.96-.58"/><path class="cls-3" d="M353.43,23.85c-1.66,1.66-2.95,3.16-4.04,5.9,0,0-6.08,14.61-8.55,20.6-2.48,5.99-8.14,10.4-12.77,10.4s-6.23-1.87-6.23-1.87l5.59-5.38s1.42,4.19,4.01,4.19c3.46,0,4.92-5.95,4.92-7.45,0,0-6.19-16.99-7.17-19.67-.98-2.68-2.38-4.97-4.09-6.73h12.48c-1.69,1.58-1.89,3.04-1.19,5.23,.7,2.18,4.66,14.55,4.66,14.55l5.04-13.82c.79-2.72-.54-3.83-2.28-5.95h9.63Z"/></g><polygon class="cls-3" points="204.31 .39 204.31 1.61 209.26 1.61 209.26 14.3 210.63 14.3 210.63 1.61 215.59 1.61 215.59 .39 204.31 .39"/><g class="cls-4"><path class="cls-3" d="M218.47,.39h5.66v.92h-5.66V.39Zm-.88,8.88c0,.75,.17,1.44,.5,2.05,.33,.62,.78,1.1,1.34,1.46,.56,.36,1.18,.53,1.86,.53s1.3-.18,1.86-.54c.56-.36,1.01-.86,1.35-1.49,.34-.63,.51-1.32,.51-2.07s-.17-1.42-.51-2.04c-.34-.62-.79-1.12-1.35-1.48-.56-.36-1.18-.55-1.86-.55s-1.3,.19-1.86,.56c-.56,.38-1.01,.87-1.34,1.49-.33,.61-.5,1.31-.5,2.07m3.72,5.22c-.74,0-1.43-.14-2.05-.42-.62-.28-1.16-.66-1.61-1.15-.45-.49-.8-1.05-1.05-1.68-.25-.63-.37-1.29-.37-1.99s.12-1.4,.37-2.03c.25-.63,.6-1.19,1.06-1.67,.46-.49,1-.87,1.62-1.15,.62-.28,1.3-.42,2.03-.42s1.4,.14,2.02,.42c.61,.28,1.15,.66,1.61,1.15,.46,.49,.81,1.05,1.06,1.67,.25,.63,.37,1.31,.37,2.03s-.12,1.37-.37,1.99c-.25,.63-.6,1.19-1.05,1.68-.45,.49-.99,.87-1.6,1.15-.62,.28-1.3,.42-2.03,.42"/></g><polygon class="cls-3" points="229.59 0 229.59 14.3 230.92 14.3 230.92 11.11 233.1 9.08 236.88 14.3 238.33 14.3 234 8.29 238.17 4.13 236.7 4.13 230.92 9.68 230.92 0 229.59 0"/><g class="cls-6"><path class="cls-3" d="M240.87,10.1V4.13h1.33v5.73c0,1.16,.2,2.02,.6,2.59,.4,.57,.99,.86,1.77,.86,.52,0,1.03-.11,1.52-.34,.49-.23,.92-.55,1.3-.97,.38-.42,.67-.91,.86-1.47V4.13h1.33V12.69c0,.18,.04,.32,.12,.4,.08,.08,.2,.13,.35,.15v1.06c-.16,.01-.28,.02-.37,.03s-.18,0-.25,0c-.26-.03-.49-.13-.68-.31-.19-.18-.29-.4-.3-.66l-.04-1.36c-.44,.78-1.05,1.39-1.81,1.83-.76,.44-1.59,.66-2.48,.66-1.07,0-1.88-.37-2.43-1.11-.55-.74-.82-1.84-.82-3.28"/></g><polygon class="cls-3" points="269.48 .39 269.48 6.58 261.24 6.58 261.24 .39 259.87 .39 259.87 14.3 261.24 14.3 261.24 7.79 269.48 7.79 269.48 14.3 270.83 14.3 270.83 .39 269.48 .39"/><g class="cls-5"><path class="cls-3" d="M280.96,12.15c.14-.18,.26-.36,.33-.52s.12-.32,.12-.45v-1.47c-.44-.17-.9-.3-1.38-.39-.48-.09-.96-.14-1.44-.14-.95,0-1.72,.19-2.31,.56-.59,.38-.88,.89-.88,1.53,0,.38,.1,.73,.29,1.06,.2,.33,.48,.6,.86,.82,.38,.21,.82,.32,1.33,.32,.64,0,1.24-.12,1.79-.37,.55-.24,.98-.56,1.28-.95m-6.83-.78c0-.64,.18-1.18,.55-1.64,.37-.46,.87-.82,1.52-1.07,.65-.25,1.39-.38,2.24-.38,.5,0,1.01,.04,1.55,.12,.54,.08,1.01,.2,1.43,.35v-.86c0-.86-.25-1.54-.76-2.04-.51-.5-1.21-.76-2.12-.76-.55,0-1.09,.1-1.62,.3-.53,.2-1.08,.5-1.65,.89l-.51-.94c.67-.46,1.32-.8,1.96-1.03,.64-.23,1.29-.34,1.96-.34,1.25,0,2.24,.36,2.98,1.07,.73,.71,1.1,1.7,1.1,2.96v4.69c0,.18,.04,.31,.12,.4,.08,.09,.2,.13,.37,.15v1.06c-.14,.01-.27,.03-.37,.04-.1,.01-.18,.01-.23,0-.33-.01-.58-.12-.74-.31-.17-.19-.26-.4-.27-.63l-.02-.74c-.46,.59-1.05,1.04-1.78,1.36s-1.48,.48-2.23,.48c-.65,0-1.24-.14-1.77-.42-.53-.28-.94-.66-1.23-1.13-.29-.47-.44-1-.44-1.57"/><path class="cls-3" d="M287.26,8.73h7.54c-.05-.74-.25-1.38-.6-1.94-.35-.56-.8-.99-1.35-1.31-.56-.32-1.17-.47-1.83-.47s-1.27,.16-1.82,.47-1,.76-1.34,1.32c-.35,.56-.54,1.2-.6,1.93m3.76,5.76c-.73,0-1.41-.14-2.04-.42-.63-.28-1.17-.66-1.63-1.15-.46-.49-.81-1.05-1.07-1.69-.26-.64-.38-1.32-.38-2.05,0-.94,.22-1.81,.66-2.6,.44-.79,1.04-1.42,1.81-1.9,.77-.47,1.64-.71,2.62-.71s1.88,.24,2.63,.72c.75,.48,1.34,1.11,1.77,1.9,.43,.78,.65,1.64,.65,2.58v.3c0,.1,0,.17-.02,.22h-8.73c.07,.73,.27,1.38,.62,1.94,.35,.56,.8,1.01,1.35,1.34,.55,.33,1.16,.5,1.81,.5s1.29-.17,1.89-.51c.59-.34,1.01-.78,1.24-1.33l1.15,.31c-.21,.48-.53,.92-.96,1.31-.43,.39-.94,.69-1.52,.91-.58,.22-1.2,.32-1.87,.32"/><path class="cls-3" d="M304.2,5.27c-.89,.03-1.67,.27-2.34,.74-.67,.47-1.15,1.12-1.42,1.94v6.34h-1.33V4.13h1.25v2.41c.35-.72,.82-1.3,1.4-1.74,.58-.44,1.2-.69,1.85-.74,.13-.01,.24-.02,.34-.02s.18,0,.25,.02v1.21Z"/><path class="cls-3" d="M307.32,8.73h7.54c-.05-.74-.25-1.38-.6-1.94-.35-.56-.8-.99-1.35-1.31-.56-.32-1.17-.47-1.83-.47s-1.27,.16-1.82,.47c-.55,.32-1,.76-1.34,1.32-.35,.56-.54,1.2-.6,1.93m3.76,5.76c-.73,0-1.41-.14-2.04-.42-.63-.28-1.17-.66-1.63-1.15-.46-.49-.81-1.05-1.07-1.69-.26-.64-.38-1.32-.38-2.05,0-.94,.22-1.81,.66-2.6,.44-.79,1.04-1.42,1.81-1.9,.77-.47,1.64-.71,2.62-.71s1.88,.24,2.63,.72c.75,.48,1.34,1.11,1.77,1.9,.43,.78,.65,1.64,.65,2.58v.3c0,.1,0,.17-.02,.22h-8.73c.07,.73,.27,1.38,.62,1.94,.35,.56,.8,1.01,1.35,1.34,.55,.33,1.16,.5,1.81,.5s1.29-.17,1.89-.51c.59-.34,1.01-.78,1.24-1.33l1.15,.31c-.21,.48-.53,.92-.96,1.31-.43,.39-.94,.69-1.52,.91-.58,.22-1.2,.32-1.87,.32"/><path class="cls-3" d="M327.74,14.3h-1.33v-5.66c0-1.19-.18-2.06-.53-2.62-.35-.55-.91-.83-1.67-.83-.52,0-1.04,.13-1.55,.38-.51,.25-.96,.59-1.34,1.03-.38,.43-.66,.93-.83,1.49v6.21h-1.33V4.13h1.21v2.32c.27-.49,.63-.92,1.08-1.29,.44-.37,.95-.66,1.51-.87,.56-.21,1.14-.31,1.74-.31,.56,0,1.04,.1,1.43,.31,.39,.21,.71,.5,.94,.89,.23,.38,.4,.84,.51,1.38,.1,.54,.16,1.14,.16,1.8v5.94Z"/><path class="cls-3" d="M336.04,13.38c.4,0,.79-.07,1.17-.22,.37-.14,.71-.34,1.03-.58,.31-.24,.58-.51,.78-.81,.21-.3,.34-.61,.39-.92v-3.15c-.2-.49-.48-.94-.84-1.32-.36-.39-.78-.69-1.24-.9-.46-.21-.94-.32-1.44-.32-.57,0-1.09,.12-1.54,.36-.45,.24-.83,.56-1.14,.96-.31,.4-.55,.85-.71,1.34-.17,.5-.25,.99-.25,1.49,0,.55,.1,1.07,.29,1.56,.2,.49,.47,.93,.81,1.31,.35,.39,.75,.68,1.21,.89,.46,.21,.96,.31,1.48,.31m-.37,1.11c-.69,0-1.33-.14-1.92-.43-.59-.29-1.09-.68-1.52-1.17-.42-.49-.75-1.05-.99-1.67-.23-.63-.35-1.27-.35-1.94,0-.72,.11-1.39,.34-2.03,.23-.63,.55-1.2,.98-1.7,.42-.5,.92-.88,1.5-1.16,.57-.28,1.21-.42,1.92-.42,.87,0,1.63,.22,2.28,.66,.65,.44,1.19,.98,1.64,1.63v-2.13h1.2V14.35c0,.94-.23,1.73-.68,2.37-.45,.64-1.06,1.13-1.82,1.45-.76,.33-1.6,.49-2.5,.49-1.16,0-2.1-.21-2.82-.63-.72-.42-1.31-.98-1.76-1.69l.82-.65c.4,.64,.94,1.12,1.62,1.43,.67,.31,1.39,.47,2.14,.47,.67,0,1.28-.12,1.83-.36,.55-.24,1-.59,1.33-1.07,.33-.47,.5-1.07,.5-1.79v-2.02c-.39,.64-.93,1.15-1.61,1.54-.68,.39-1.39,.58-2.13,.58"/><path class="cls-3" d="M350.69,12.15c.14-.18,.26-.36,.33-.52,.08-.17,.12-.32,.12-.45v-1.47c-.44-.17-.9-.3-1.38-.39-.48-.09-.96-.14-1.44-.14-.95,0-1.72,.19-2.31,.56-.59,.38-.88,.89-.88,1.53,0,.38,.1,.73,.29,1.06,.2,.33,.48,.6,.86,.82,.38,.21,.82,.32,1.33,.32,.64,0,1.24-.12,1.79-.37,.55-.24,.98-.56,1.28-.95m-6.83-.78c0-.64,.18-1.18,.55-1.64,.37-.46,.87-.82,1.52-1.07,.65-.25,1.39-.38,2.24-.38,.5,0,1.01,.04,1.55,.12,.54,.08,1.01,.2,1.43,.35v-.86c0-.86-.25-1.54-.76-2.04-.51-.5-1.21-.76-2.12-.76-.55,0-1.09,.1-1.62,.3-.53,.2-1.08,.5-1.65,.89l-.51-.94c.67-.46,1.32-.8,1.96-1.03,.64-.23,1.29-.34,1.96-.34,1.25,0,2.24,.36,2.98,1.07,.73,.71,1.1,1.7,1.1,2.96v4.69c0,.18,.04,.31,.12,.4,.08,.09,.2,.13,.37,.15v1.06c-.14,.01-.27,.03-.37,.04-.1,.01-.18,.01-.23,0-.33-.01-.58-.12-.74-.31-.17-.19-.26-.4-.27-.63l-.02-.74c-.46,.59-1.05,1.04-1.78,1.36s-1.48,.48-2.23,.48c-.65,0-1.24-.14-1.77-.42-.53-.28-.94-.66-1.23-1.13-.29-.47-.44-1-.44-1.57"/></g></g></svg>