<svg xmlns="http://www.w3.org/2000/svg" viewBox="0 0 227.82 43.53"><defs><style>.cls-1{fill:#210f36;}</style></defs><g id="Layer_2" data-name="Layer 2"><g id="Layer_1-2" data-name="Layer 1"><path class="cls-1" d="M15.06,31.53c-.23-.54-.19-.73.27-1.54C24,14.88,26.07,10,26.07,7.83c0-.81,0-.85-.73-.69-2.49.53-8.59,6-11.74,10.51-2.18,3.14-2.34,3.29-3,3.29s-1.15-.38-1.15-1c0-.27.42-2.34.92-4.64s.89-4.22.85-4.26-3.65,6.83-5,9.93c-.69,1.58-1.84,4.45-2.64,6.37a34.15,34.15,0,0,1-1.81,4c-.46.57-1.11.5-1.53-.19-.34-.54-.31-.69,1.11-4.26A122.73,122.73,0,0,1,10,8.63c2.15-3.56,2.45-3.87,3.49-3.79,1.38.11,1.42.34.34,5.1-.53,2.34-.95,4.45-.95,4.64s.26,0,.61-.46A38.37,38.37,0,0,1,23,5.72c2.45-1.31,4.33-1.11,5,.54.81,1.91.2,4.18-2.95,10.35-2.18,4.3-7.75,14.61-8.24,15.11A1,1,0,0,1,15.06,31.53Z"/><path class="cls-1" d="M22.67,43.33c-1.8-.76-1.07-3.79,1.69-7.51A79.77,79.77,0,0,1,34.1,26c1.49-1.26,2.72-2.34,2.76-2.34a8.27,8.27,0,0,0,.42-.92c.39-.84.39-.88-.07-.53-5.49,4.1-8.86,5.56-10.59,5-2.26-.77-1.92-3.87.61-7.59a9.5,9.5,0,0,1,1.58-1.84,1.68,1.68,0,0,1,1.91-.08c.54.54.31,1.11-.8,2.19a12.07,12.07,0,0,0-2.69,4.52c-.23.88.46.88,2.31,0a36.92,36.92,0,0,0,7.17-4.68c2.64-2.07,3.41-2.34,3.91-1.26a2.31,2.31,0,0,1,0,1.53,4.63,4.63,0,0,0-.19,1,23.11,23.11,0,0,0,2.18-1.54A13.57,13.57,0,0,1,45,17.79c.34,0,1,.77,1,1.19s-1.16,1.5-4.3,3.8l-2.84,2.07L37.28,28a44.78,44.78,0,0,1-9.09,12.5c-1.8,1.72-3.87,3-4.68,3A2.53,2.53,0,0,1,22.67,43.33Zm4.45-4.87a49.07,49.07,0,0,0,3.64-4.14c1.61-2.11,3.68-5.4,3.53-5.56-.31-.31-6.6,6.25-8.47,8.78a17.65,17.65,0,0,0-1.88,3.38C23.94,41.3,25.24,40.34,27.12,38.46Z"/><path class="cls-1" d="M48.84,27.62V10.19A7.1,7.1,0,0,0,47.43,6h7.31a8.6,8.6,0,0,0-1.37,4.22V29.31h5.55a2.82,2.82,0,0,0,1.51-.54L62.7,27l1.87,4.79H47.43A7.08,7.08,0,0,0,48.84,27.62Z"/><path class="cls-1" d="M64.64,9.75l3.19-3.06a7.91,7.91,0,0,0,3,3.12l-3.09,3.33A8.33,8.33,0,0,1,64.64,9.75ZM64.74,32A6.54,6.54,0,0,0,66,28.06V20a4.35,4.35,0,0,0-1.28-3l5.2-2.37L70,28a8.09,8.09,0,0,0,1.29,4Z"/><path class="cls-1" d="M77.64,15.12h4.74l-.59,1.67H77.64c0,5.14,0,11.16,0,11.16a9.45,9.45,0,0,0,1.52,4H72.57a7.72,7.72,0,0,0,1.29-4l-.13-11.16H72l.62-1.67h1.16c0-.31,0-.61,0-.91,0-1.24.6-2.49,3.1-5C79.72,6.33,81.1,6,82.42,6a4,4,0,0,1,3.09,1.18L82.12,11.4a2.65,2.65,0,0,0-2.5-1.78c-.86,0-2,.13-2,1.38S77.62,13.74,77.64,15.12Z"/><path class="cls-1" d="M94.53,29.57a6.64,6.64,0,0,1-5.66,2.83c-4.28,0-7.11-2.86-7.11-9.15,0-5,2.19-8.62,7.14-8.62a6.15,6.15,0,0,1,5.34,2.47l-7.61,9.38a1.54,1.54,0,0,0,.16.55c1.27,2.73,2.74,2.91,4.59,2.91A17.59,17.59,0,0,0,94.53,29.57ZM84.8,19a24.12,24.12,0,0,0,1.44,6.24s2.45-3.67,3-4.54C91,18,89.19,17.2,86.34,17c-1.17-.07-1.48.61-1.54,1.93Z"/><path class="cls-1" d="M97.18,9.73a4,4,0,0,1-.13,1,13.81,13.81,0,0,1-2.13,3.92,4.25,4.25,0,0,0,.2-1.35,5.85,5.85,0,0,0-2.87-4.86S93.74,7,94.67,6.05C94.67,6.05,97.18,7.27,97.18,9.73Z"/><path class="cls-1" d="M109.66,28.15c0,.86-.55,4.28-7.2,4.28-4.68,0-6.45-2.77-6.45-2.77L99.2,26.4a7.92,7.92,0,0,0,6.48,3.86,1.86,1.86,0,0,0,1.37-.62c0-.8-2-2-5.12-4-4.58-3.31-5-5.12-5-6.78s2-4.18,5.86-4.18c4.48,0,5.66,1.78,5.66,1.78l-1.54,4.12S103.71,17,100.58,17c-1,0-1.4.2-1.4.55,0,.8,2.19,2.22,5.25,4.49C108.26,24.89,109.67,25.83,109.66,28.15Z"/><path class="cls-1" d="M129.36,6A8.6,8.6,0,0,0,128,10.23V23.7c0,1.23-.43,4.32-4.46,6.62a14,14,0,0,1-7,2A7.36,7.36,0,0,1,112,31l4.14-4c1.09,1.14,3.27,2.5,4.8,2.5a1.76,1.76,0,0,0,.93-.24c1.58-1,1.62-7.74,1.62-7.74V10.19A7,7,0,0,0,122.05,6Z"/><path class="cls-1" d="M146.79,24.09c0,6.51-3.71,8.87-8.18,8.87s-8.17-2.41-8.17-9,3.67-9,8.17-9C144.05,14.88,146.79,19,146.79,24.09Zm-5.19-3.67c-1.2-2.36-3.52-3-6.09-3-1,0-1.44.61-1.44,1.7a19.52,19.52,0,0,0,1.58,8.26c1.12,2.46,3.23,3.45,5.82,3.45.85,0,1.41-.65,1.41-2C142.88,25.88,142.94,23.07,141.6,20.42Z"/><path class="cls-1" d="M158.9,32.72v-3c-.7.67-3.51,3.21-6,3.24h-.06c-3.84,0-3.94-2.8-3.94-4.47V20.25a4.57,4.57,0,0,0-1.3-3.11l4.94-2.26V26.35a3.12,3.12,0,0,0,3.37,3.09,8.18,8.18,0,0,0,2.9-.65V20.38a4.58,4.58,0,0,0-1.3-3.1l5.27-2.4V27.49a4.51,4.51,0,0,0,1.3,3.06S158.9,32.72,158.9,32.72Z"/><path class="cls-1" d="M178.68,15.94l-3.37,4.21a3.29,3.29,0,0,0-2.95-1.81,5.28,5.28,0,0,0-2.12.5l0,9.53a8.16,8.16,0,0,0,1.31,4.05H165a6.58,6.58,0,0,0,1.3-4V20.08A4.75,4.75,0,0,0,165,17l5.27-2.4v3.1c.7-.83,2.8-3,5.47-3A3.31,3.31,0,0,1,178.68,15.94Z"/><path class="cls-1" d="M195.78,32.42h-6.21a14.48,14.48,0,0,0,1.27-4.08V20.85s0-2.68-3.76-2.68a7,7,0,0,0-2.85.67l.07,9.51a8.18,8.18,0,0,0,1.3,4.07H179a6.66,6.66,0,0,0,1.3-4c0-2.77,0-5.54,0-8.31a4.53,4.53,0,0,0-1.3-3.07s5.2-2.4,5.2-2.4v3.23c.7-.63,3.93-3.23,6.27-3.23s4,1.35,4,4.46,0,6.21,0,9.32a9.27,9.27,0,0,0,1.28,4Z"/><path class="cls-1" d="M209.63,30a6.74,6.74,0,0,1-5.73,2.87c-4.34,0-7.21-2.9-7.21-9.27,0-5.07,2.22-8.75,7.24-8.75a6.22,6.22,0,0,1,5.4,2.51l-7.7,9.51a1.36,1.36,0,0,0,.16.56c1.28,2.76,2.77,2.94,4.65,2.94A18,18,0,0,0,209.63,30Zm-9.86-10.75a24.18,24.18,0,0,0,1.46,6.31l3.06-4.6c1.74-2.65-.07-3.5-3-3.67-1.19-.07-1.5.62-1.56,2Z"/><path class="cls-1" d="M227.82,15.38a10.1,10.1,0,0,0-2.6,3.8s-3.92,9.41-5.52,13.28-5.24,6.7-8.23,6.7-4-1.2-4-1.2l3.6-3.47s.92,2.71,2.58,2.71c2.24,0,3.18-3.84,3.18-4.81,0,0-4-10.95-4.63-12.68a12.2,12.2,0,0,0-2.63-4.33h8a2.79,2.79,0,0,0-.77,3.36l3,9.38,3.25-8.91c.51-1.75-.34-2.47-1.47-3.83Z"/><path class="cls-1" d="M139.45,1h-3.2V9.21h-.88V1h-3.19V.25h7.27Z"/><path class="cls-1" d="M142.65,9.34a3.13,3.13,0,0,1-2.35-1,3.36,3.36,0,0,1-.68-1.08A3.48,3.48,0,0,1,139.38,6a3.45,3.45,0,0,1,.92-2.39,3.39,3.39,0,0,1,1-.74,3.12,3.12,0,0,1,1.3-.27,3.09,3.09,0,0,1,1.3.27,3.34,3.34,0,0,1,1,.74A3.45,3.45,0,0,1,145.91,6a3.48,3.48,0,0,1-.24,1.29A3.36,3.36,0,0,1,145,8.33a3.13,3.13,0,0,1-2.34,1ZM140.25,6a2.69,2.69,0,0,0,.33,1.32,2.44,2.44,0,0,0,.86.94,2.18,2.18,0,0,0,1.2.34,2.11,2.11,0,0,0,1.2-.35,2.53,2.53,0,0,0,.87-1A2.73,2.73,0,0,0,145,5.94a2.69,2.69,0,0,0-.33-1.32,2.58,2.58,0,0,0-.87-1,2.19,2.19,0,0,0-1.2-.35,2.12,2.12,0,0,0-1.2.36A2.76,2.76,0,0,0,140.25,6Zm.57-5.13V.25h3.65v.6Z"/><path class="cls-1" d="M152.69,9.21l-2.44-3.36-1.4,1.31V9.21H148V0h.86V6.24l3.72-3.58h1l-2.69,2.69,2.79,3.86Z"/><path class="cls-1" d="M155.26,6.51V2.66h.86v3.7A2.92,2.92,0,0,0,156.51,8a1.28,1.28,0,0,0,1.14.55,2.29,2.29,0,0,0,1-.22,2.62,2.62,0,0,0,.84-.62,3,3,0,0,0,.55-1V2.66h.86V8.18a.38.38,0,0,0,.07.26.4.4,0,0,0,.23.09v.68l-.24,0h-.16a.72.72,0,0,1-.44-.2.63.63,0,0,1-.19-.43l0-.88A3,3,0,0,1,159,8.91a3.06,3.06,0,0,1-1.59.43,1.84,1.84,0,0,1-1.57-.72A3.53,3.53,0,0,1,155.26,6.51Zm1-5.66V.25h3.65v.6Z"/><path class="cls-1" d="M174.57.25v9h-.87V5h-5.31V9.21h-.88v-9h.88v4h5.31v-4Z"/><path class="cls-1" d="M176.7,7.33a1.63,1.63,0,0,1,.35-1.06,2.34,2.34,0,0,1,1-.69,4,4,0,0,1,1.44-.24,7,7,0,0,1,1,.07,5.37,5.37,0,0,1,.92.23V5.09a1.78,1.78,0,0,0-.49-1.32,1.83,1.83,0,0,0-1.36-.49,3,3,0,0,0-1,.2,5.28,5.28,0,0,0-1.06.57l-.33-.6a5.53,5.53,0,0,1,1.26-.67,3.88,3.88,0,0,1,1.26-.22,2.63,2.63,0,0,1,1.92.69,2.56,2.56,0,0,1,.71,1.91v3a.34.34,0,0,0,.08.26.38.38,0,0,0,.24.09v.68l-.24,0h-.16a.67.67,0,0,1-.48-.2.67.67,0,0,1-.17-.41l0-.48a2.78,2.78,0,0,1-1.14.88,3.52,3.52,0,0,1-1.44.31,2.47,2.47,0,0,1-1.15-.27,2,2,0,0,1-.79-.73A1.85,1.85,0,0,1,176.7,7.33Zm4.4.5a1.89,1.89,0,0,0,.22-.33.71.71,0,0,0,.07-.29v-1A5.33,5.33,0,0,0,180.5,6a4.88,4.88,0,0,0-.93-.09,2.76,2.76,0,0,0-1.49.36,1.13,1.13,0,0,0-.56,1,1.27,1.27,0,0,0,.19.68,1.41,1.41,0,0,0,.55.53,1.68,1.68,0,0,0,.86.2,2.91,2.91,0,0,0,1.15-.23A2.08,2.08,0,0,0,181.1,7.83Z"/><path class="cls-1" d="M187.59,9.34a3.22,3.22,0,0,1-2.36-1,3.36,3.36,0,0,1-.69-1.09,3.6,3.6,0,0,1-.25-1.32,3.44,3.44,0,0,1,.43-1.68A3.24,3.24,0,0,1,185.88,3a3.16,3.16,0,0,1,1.7-.46,3.06,3.06,0,0,1,1.69.47,3.29,3.29,0,0,1,1.15,1.22,3.46,3.46,0,0,1,.41,1.66V6.1a.62.62,0,0,1,0,.15h-5.63a2.88,2.88,0,0,0,.4,1.25,2.47,2.47,0,0,0,.87.86,2.19,2.19,0,0,0,1.17.32,2.46,2.46,0,0,0,1.21-.32,1.86,1.86,0,0,0,.81-.86l.74.2a2.47,2.47,0,0,1-.62.85,3,3,0,0,1-1,.58A3.36,3.36,0,0,1,187.59,9.34Zm-2.42-3.71H190a2.79,2.79,0,0,0-.39-1.25,2.34,2.34,0,0,0-.87-.84,2.29,2.29,0,0,0-1.18-.31,2.23,2.23,0,0,0-1.17.31,2.29,2.29,0,0,0-.87.85A2.66,2.66,0,0,0,185.17,5.63Z"/><path class="cls-1" d="M196.08,3.4a2.64,2.64,0,0,0-1.5.47,2.43,2.43,0,0,0-.92,1.25V9.21h-.86V2.66h.81V4.22a3.18,3.18,0,0,1,.9-1.13,2.35,2.35,0,0,1,1.2-.48h.37Z"/><path class="cls-1" d="M200.51,9.34a3.2,3.2,0,0,1-1.31-.27,3.39,3.39,0,0,1-1-.74,3.51,3.51,0,0,1-.68-1.09,3.41,3.41,0,0,1-.25-1.32,3.43,3.43,0,0,1,.42-1.68A3.19,3.19,0,0,1,198.81,3a3.13,3.13,0,0,1,1.69-.46,3.07,3.07,0,0,1,1.7.47,3.39,3.39,0,0,1,1.56,2.88V6.1c0,.07,0,.11,0,.15h-5.63a2.87,2.87,0,0,0,.39,1.25,2.65,2.65,0,0,0,.87.86,2.19,2.19,0,0,0,1.17.32,2.5,2.5,0,0,0,1.22-.32,1.84,1.84,0,0,0,.8-.86l.75.2a2.61,2.61,0,0,1-.62.85,3.1,3.1,0,0,1-1,.58A3.42,3.42,0,0,1,200.51,9.34Zm-2.42-3.71H203a2.66,2.66,0,0,0-.38-1.25,2.44,2.44,0,0,0-.88-.84,2.38,2.38,0,0,0-2.35,0,2.33,2.33,0,0,0-.86.85A2.56,2.56,0,0,0,198.09,5.63Z"/><path class="cls-1" d="M211.26,9.21h-.86V5.56a3.28,3.28,0,0,0-.34-1.68A1.19,1.19,0,0,0,209,3.34a2.27,2.27,0,0,0-1,.25,2.79,2.79,0,0,0-.87.66,2.52,2.52,0,0,0-.53,1v4h-.86V2.66h.78v1.5a3.1,3.1,0,0,1,.69-.84,3.38,3.38,0,0,1,1-.56,3.26,3.26,0,0,1,1.12-.2,2,2,0,0,1,.92.2,1.67,1.67,0,0,1,.61.57,2.81,2.81,0,0,1,.33.9,6.69,6.69,0,0,1,.1,1.16Z"/><path class="cls-1" d="M216.37,9.34a2.72,2.72,0,0,1-1.24-.28,3,3,0,0,1-1-.75,3.41,3.41,0,0,1-.63-1.08A3.34,3.34,0,0,1,213.29,6a3.7,3.7,0,0,1,.22-1.3,3.63,3.63,0,0,1,.63-1.1,3,3,0,0,1,1-.75,2.77,2.77,0,0,1,1.23-.27,2.48,2.48,0,0,1,1.47.43,3.92,3.92,0,0,1,1.06,1V2.66h.77V9.25a2.63,2.63,0,0,1-.44,1.53,2.7,2.7,0,0,1-1.17.93,4.06,4.06,0,0,1-1.61.32,3.69,3.69,0,0,1-1.82-.4,3.37,3.37,0,0,1-1.13-1.09l.53-.42a2.32,2.32,0,0,0,1,.92,3.1,3.1,0,0,0,1.38.31,3,3,0,0,0,1.18-.23,2,2,0,0,0,.86-.69,2,2,0,0,0,.32-1.15V8a2.83,2.83,0,0,1-1,1A2.69,2.69,0,0,1,216.37,9.34Zm.24-.72a2.12,2.12,0,0,0,.75-.14,2.38,2.38,0,0,0,.66-.37,2.78,2.78,0,0,0,.51-.52,1.54,1.54,0,0,0,.25-.6V5a2.66,2.66,0,0,0-1.34-1.43,2.18,2.18,0,0,0-.93-.21,2.13,2.13,0,0,0-1,.23,2.47,2.47,0,0,0-.74.62,3.29,3.29,0,0,0-.46.87,2.93,2.93,0,0,0-.16,1,2.62,2.62,0,0,0,.19,1,2.89,2.89,0,0,0,.52.84,2.49,2.49,0,0,0,.79.58A2.31,2.31,0,0,0,216.61,8.62Z"/><path class="cls-1" d="M221.64,7.33A1.64,1.64,0,0,1,222,6.27a2.34,2.34,0,0,1,1-.69,4,4,0,0,1,1.44-.24,7,7,0,0,1,1,.07,5.37,5.37,0,0,1,.92.23V5.09a1.78,1.78,0,0,0-.49-1.32,1.83,1.83,0,0,0-1.36-.49,2.92,2.92,0,0,0-1.05.2,5.28,5.28,0,0,0-1.06.57l-.33-.6a5.53,5.53,0,0,1,1.26-.67,3.88,3.88,0,0,1,1.26-.22,2.63,2.63,0,0,1,1.92.69,2.56,2.56,0,0,1,.71,1.91v3a.38.38,0,0,0,.07.26.4.4,0,0,0,.24.09v.68l-.24,0h-.15a.67.67,0,0,1-.48-.2.67.67,0,0,1-.17-.41l0-.48a2.78,2.78,0,0,1-1.14.88,3.56,3.56,0,0,1-1.44.31,2.44,2.44,0,0,1-1.15-.27,2,2,0,0,1-.79-.73A1.86,1.86,0,0,1,221.64,7.33Zm4.41.5a1.8,1.8,0,0,0,.21-.33.61.61,0,0,0,.08-.29v-1a5.33,5.33,0,0,0-.89-.25,4.88,4.88,0,0,0-.93-.09,2.76,2.76,0,0,0-1.49.36,1.11,1.11,0,0,0-.56,1,1.36,1.36,0,0,0,.18.68,1.51,1.51,0,0,0,.56.53,1.68,1.68,0,0,0,.86.2,2.91,2.91,0,0,0,1.15-.23A2.08,2.08,0,0,0,226.05,7.83Z"/></g></g></svg>